<svg xmlns="http://www.w3.org/2000/svg" width="41" height="41" fill="none" viewBox="0 0 41 41"><rect width="41" height="41" fill="#FFE7DB" rx="20.5"/><path fill="#F77E23" d="M15.2292 16.4001V12.8858C15.2292 12.2645 15.476 11.6685 15.9154 11.2292C16.3548 10.7898 16.9507 10.543 17.5721 10.543H22.2578C22.8791 10.543 23.4751 10.7898 23.9144 11.2292C24.3538 11.6685 24.6006 12.2645 24.6006 12.8858V16.4001H28.1149C28.7363 16.4001 29.3322 16.6469 29.7716 17.0863C30.2109 17.5257 30.4578 18.1216 30.4578 18.743V29.2858C30.4578 29.9072 30.2109 30.5031 29.7716 30.9425C29.3322 31.3818 28.7363 31.6287 28.1149 31.6287H11.7149C11.0936 31.6287 10.4976 31.3818 10.0583 30.9425C9.61891 30.5031 9.37207 29.9072 9.37207 29.2858V18.743C9.37207 18.1216 9.61891 17.5257 10.0583 17.0863C10.4976 16.6469 11.0936 16.4001 11.7149 16.4001H15.2292ZM11.7149 18.743V29.2858H28.1149V18.743H24.5983V22.2573H22.2578V18.743H17.5721V22.2573H15.2292V18.743H11.7149ZM17.5721 16.4001H22.2578V12.8858H17.5721V16.4001Z"/></svg>