<svg width="60" height="61" viewBox="0 0 60 61" fill="none" xmlns="http://www.w3.org/2000/svg">
<path fill-rule="evenodd" clip-rule="evenodd" d="M24.0621 37.0271L33.4371 30.7771L24.0621 24.5271C23.9389 24.445 23.8332 24.3395 23.7509 24.2166C23.6685 24.0936 23.6112 23.9557 23.5822 23.8106C23.5532 23.6655 23.553 23.5161 23.5817 23.371C23.6105 23.2258 23.6675 23.0877 23.7496 22.9646C23.8316 22.8415 23.9372 22.7358 24.0601 22.6534C24.183 22.5711 24.321 22.5138 24.4661 22.4848C24.6112 22.4558 24.7606 22.4556 24.9057 22.4843C25.0509 22.513 25.1889 22.57 25.3121 22.6521L35.9396 29.7371C36.1108 29.8513 36.2511 30.0059 36.3482 30.1874C36.4453 30.3688 36.4961 30.5714 36.4961 30.7771C36.4961 30.9829 36.4453 31.1855 36.3482 31.3669C36.2511 31.5483 36.1108 31.703 35.9396 31.8171L25.3121 38.9021C25.1889 38.9842 25.0509 39.0412 24.9057 39.0699C24.7606 39.0987 24.6112 39.0985 24.4661 39.0695C24.321 39.0405 24.183 38.9832 24.0601 38.9008C23.9372 38.8185 23.8316 38.7127 23.7496 38.5896C23.6675 38.4665 23.6105 38.3284 23.5817 38.1833C23.553 38.0381 23.5532 37.8887 23.5822 37.7437C23.6112 37.5986 23.6685 37.4606 23.7509 37.3377C23.8332 37.2147 23.9389 37.1092 24.0621 37.0271Z" fill="#F77E23"/>
<rect x="-0.5" y="0.5" width="59" height="59" rx="29.5" transform="matrix(-1 0 0 1 59 0.777344)" stroke="#F77E23"/>
</svg>
