<svg width="60" height="61" viewBox="0 0 60 61" fill="none" xmlns="http://www.w3.org/2000/svg">
<path fill-rule="evenodd" clip-rule="evenodd" d="M35.9379 37.0271L26.5629 30.7771L35.9379 24.5271C36.0611 24.445 36.1668 24.3395 36.2491 24.2166C36.3315 24.0936 36.3888 23.9557 36.4178 23.8106C36.4468 23.6655 36.447 23.5161 36.4183 23.371C36.3895 23.2258 36.3325 23.0877 36.2504 22.9646C36.1684 22.8415 36.0628 22.7358 35.9399 22.6534C35.817 22.5711 35.679 22.5138 35.5339 22.4848C35.3888 22.4558 35.2394 22.4556 35.0943 22.4843C34.9491 22.513 34.8111 22.57 34.6879 22.6521L24.0604 29.7371C23.8892 29.8513 23.7489 30.0059 23.6518 30.1874C23.5547 30.3688 23.5039 30.5714 23.5039 30.7771C23.5039 30.9829 23.5547 31.1855 23.6518 31.3669C23.7489 31.5483 23.8892 31.703 24.0604 31.8171L34.6879 38.9021C34.8111 38.9842 34.9491 39.0412 35.0943 39.0699C35.2394 39.0987 35.3888 39.0985 35.5339 39.0695C35.679 39.0405 35.817 38.9832 35.9399 38.9008C36.0628 38.8185 36.1684 38.7127 36.2504 38.5896C36.3325 38.4665 36.3895 38.3284 36.4183 38.1833C36.447 38.0381 36.4468 37.8887 36.4178 37.7437C36.3888 37.5986 36.3315 37.4606 36.2491 37.3377C36.1668 37.2147 36.0611 37.1092 35.9379 37.0271Z" fill="#F77E23"/>
<rect x="0.5" y="1.27734" width="59" height="59" rx="29.5" stroke="#F77E23"/>
</svg>
