<svg xmlns="http://www.w3.org/2000/svg" width="60" height="60" fill="none" viewBox="0 0 60 60"><rect width="60" height="60" fill="#F77E23" rx="30" transform="matrix(-1 0 0 1 60 0)"/><path fill="#fff" fill-rule="evenodd" d="M24.0621 36.25L33.4371 30L24.0621 23.75C23.9389 23.6679 23.8332 23.5624 23.7509 23.4395C23.6685 23.3165 23.6112 23.1786 23.5822 23.0335C23.5532 22.8884 23.553 22.739 23.5817 22.5939C23.6105 22.4487 23.6675 22.3106 23.7496 22.1875C23.8316 22.0644 23.9372 21.9587 24.0601 21.8763C24.183 21.794 24.321 21.7367 24.4661 21.7077C24.6112 21.6787 24.7606 21.6785 24.9057 21.7072C25.0509 21.7359 25.1889 21.7929 25.3121 21.875L35.9396 28.96C36.1108 29.0742 36.2511 29.2288 36.3482 29.4103C36.4453 29.5917 36.4961 29.7943 36.4961 30C36.4961 30.2058 36.4453 30.4084 36.3482 30.5898C36.2511 30.7712 36.1108 30.9259 35.9396 31.04L25.3121 38.125C25.1889 38.2071 25.0509 38.2641 24.9057 38.2928C24.7606 38.3216 24.6112 38.3214 24.4661 38.2924C24.321 38.2634 24.183 38.2061 24.0601 38.1237C23.9372 38.0414 23.8316 37.9356 23.7496 37.8125C23.6675 37.6894 23.6105 37.5513 23.5817 37.4062C23.553 37.261 23.5532 37.1116 23.5822 36.9666C23.6112 36.8215 23.6685 36.6835 23.7509 36.5606C23.8332 36.4376 23.9389 36.3321 24.0621 36.25Z" clip-rule="evenodd"/></svg>