<svg xmlns="http://www.w3.org/2000/svg" width="60" height="60" fill="none" viewBox="0 0 60 60"><rect width="60" height="60" fill="#F77E23" rx="30"/><path fill="#fff" fill-rule="evenodd" d="M35.9379 36.25L26.5629 30L35.9379 23.75C36.0611 23.6679 36.1668 23.5624 36.2491 23.4395C36.3315 23.3165 36.3888 23.1786 36.4178 23.0335C36.4468 22.8884 36.447 22.739 36.4183 22.5939C36.3895 22.4487 36.3325 22.3106 36.2504 22.1875C36.1684 22.0644 36.0628 21.9587 35.9399 21.8763C35.817 21.794 35.679 21.7367 35.5339 21.7077C35.3888 21.6787 35.2394 21.6785 35.0943 21.7072C34.9491 21.7359 34.8111 21.7929 34.6879 21.875L24.0604 28.96C23.8892 29.0742 23.7489 29.2288 23.6518 29.4103C23.5547 29.5917 23.5039 29.7943 23.5039 30C23.5039 30.2058 23.5547 30.4084 23.6518 30.5898C23.7489 30.7712 23.8892 30.9259 24.0604 31.04L34.6879 38.125C34.8111 38.2071 34.9491 38.2641 35.0943 38.2928C35.2394 38.3216 35.3888 38.3214 35.5339 38.2924C35.679 38.2634 35.817 38.2061 35.9399 38.1237C36.0628 38.0414 36.1684 37.9356 36.2504 37.8125C36.3325 37.6894 36.3895 37.5513 36.4183 37.4062C36.447 37.261 36.4468 37.1116 36.4178 36.9666C36.3888 36.8215 36.3315 36.6835 36.2491 36.5606C36.1668 36.4376 36.0611 36.3321 35.9379 36.25Z" clip-rule="evenodd"/></svg>